<svg xmlns="http://www.w3.org/2000/svg" viewBox="0 0 751.66 337.85"><defs><style>.cls-1{isolation:isolate;}.cls-15,.cls-2{fill:none;stroke-linecap:round;}.cls-2{stroke:#ea6461;stroke-miterlimit:10;stroke-width:4px;opacity:0.54;}.cls-3{fill:#f1f1f3;mix-blend-mode:multiply;}.cls-4{fill:#ea6461;}.cls-5{fill:#322342;}.cls-6{fill:#b04b49;}.cls-7{fill:#db6e73;}.cls-8{fill:#fff;}.cls-9{fill:#ede9e6;}.cls-10{fill:#ffd0bd;}.cls-11{fill:#ffb59f;}.cls-12{fill:#719ea8;}.cls-13{fill:#97d2e0;}.cls-14{fill:#ec7352;}.cls-15{stroke:#fff;stroke-linejoin:round;stroke-width:5px;}</style></defs><g class="cls-1"><g id="Layer_2" data-name="Layer 2"><g id="OBJECTS"><path class="cls-2" d="M749.66,186.81c-51.11,42.61-123.57,58.46-190.76,51.3-79.87-8.5-154-44.89-223.64-84.84S197.66,68.9,122.08,41.7C89.45,30,54.59,21.47,20.24,26.26A119.22,119.22,0,0,0,2,30.3"/><path class="cls-3" d="M510.18,155.31l-.37-1.43h0ZM275.8,77.15a1.44,1.44,0,0,1,1.71.24l9.71,9,36.92,34.37.84-1.51,16.2-2h0l22.1,15.08h0l40.4,27.39,2.79,1.89,2.05-5.37,12.22-31.93,1.55-4c-11.4-1.13-21.07-7.18-21.05-24.48a33.28,33.28,0,0,1,1.22-9.41h98.24c0,1.3.06,2.52.17,3.63,13.9,3,14.65,17.49,14.69,18.72l0,0c.2.2.41.41.6.63.78.86,1.54,1.77,2.3,2.67,2.37,2.84,4.64,5.83,6.77,9,1.15-.63,1.84-1,1.84-1l5.1,1.33,2.52-1.84,2.35.35-.25.19,15.86,57.45L544.49,184c.69,3.12,4.11,22.05-12.89,29.25,1.06,2,2.06,4,3,6.12s1.76,4.06,2.57,6.14a1.9,1.9,0,0,1,.1.28,84.67,84.67,0,0,1,2.89,8.18c0,.12.08.24.11.36,13.75,43.55,9.22,95.41,9.22,95.41h-5.72c-.08,2.94-.17,5.75-.25,7.92a11,11,0,0,1-2.07.19H451.73l.34-8.11h-3.73L442.9,251a187.41,187.41,0,0,1-1.88-19.3,160.46,160.46,0,0,1,.11-17.89q.22-3.48.58-6.75a127.86,127.86,0,0,1,7.48-31.92c.83-2.15,1.68-4.14,2.5-6l-.17-.38a32.44,32.44,0,0,1-5.68-1.52c-.8,1.95-1.63,3.86-2.52,5.77a115,115,0,0,1-8.13,14.6A91.37,91.37,0,0,1,425,200.51a16.17,16.17,0,0,1-20.9,2,17.64,17.64,0,0,1-6.87-4.93c-9.54-11.11-21.66-27.8-34.64-52a70.34,70.34,0,0,1-9.11,2.44l3.15,3a2.9,2.9,0,1,1-4,4.18L346.31,149a59.35,59.35,0,0,1-6.89.08l-1.31-.08a4.28,4.28,0,0,1-2,1.67L327.9,154a4.12,4.12,0,0,1-4.16-.67,4.18,4.18,0,0,1-1.24-1.78,3.77,3.77,0,0,1-.16-1.93,4.64,4.64,0,0,1,.11-.51,3.9,3.9,0,0,1,1-1.73l-.58,0a4.1,4.1,0,0,1-4.35-4,3.7,3.7,0,0,1,.44-1.88c.09-.15.18-.31.27-.45a4,4,0,0,1,1-1A1.45,1.45,0,0,1,320,140a4,4,0,0,1-2.7-.79,3.94,3.94,0,0,1-1.08-1.18,4.07,4.07,0,0,1,.85-5.22l-.06-.06h0l.26-.2.6-.44a3.35,3.35,0,0,1-.36-.21,4,4,0,0,1-1.35-1.75,4.09,4.09,0,0,1,1.95-5.19l2.12-1.06L282.47,86.44l-7-7A1.46,1.46,0,0,1,275.8,77.15Z"/><path class="cls-4" d="M428.53,231.73A190.2,190.2,0,0,0,430.4,251l77-13.18,20.28-3.46c0-.11-.07-.23-.1-.35a86.71,86.71,0,0,0-2.89-8.18c0-.09-.06-.18-.1-.27a135,135,0,0,0-10.78-21c-9.24-14.74-23.89-31.76-46.13-43.17a112.18,112.18,0,0,0-19.28-7.71,57.72,57.72,0,0,0-6.63,10.26c-.79,1.5-1.63,3.16-2.47,5s-1.77,4-2.64,6.29a126.74,126.74,0,0,0-7.47,31.9A156.2,156.2,0,0,0,428.53,231.73Z"/><path class="cls-5" d="M412.48,33.57C405.25,76.07,388.81,73.3,388.79,96c0,42.09,57.27,17.6,57.27,17.6l-3.17-82.67Z"/><path class="cls-4" d="M386.65,197.16a15.82,15.82,0,0,0,1.38,2.1c.25.32.5.62.76.91a16.17,16.17,0,0,0,23.68.41,101.74,101.74,0,0,0,18.36-27.47c8.81-18.8,13.29-40.22,15.23-59.53A16,16,0,0,0,433,96.23a16.77,16.77,0,0,0-2.81-.25,16,16,0,0,0-14.44,9.14l-4.38,11.41v0l-3,8-12.21,31.91-10.38,27.13A16.19,16.19,0,0,0,386.65,197.16Z"/><path class="cls-6" d="M388.79,200.17a16.17,16.17,0,0,0,23.68.41,101.74,101.74,0,0,0,18.36-27.47c8.81-18.8,13.29-40.22,15.23-59.53,0,0-19.49,39-29.29,58.91a80.3,80.3,0,0,1-4.21,7.53,17.85,17.85,0,0,1-3.6,14.7,17.61,17.61,0,0,1-13.79,6.61A18.1,18.1,0,0,1,388.79,200.17Z"/><path class="cls-6" d="M418.05,114.94l-2.2,16.3c-10,20.49-2.42,36.67,13.47,37.64l1.51,4.24c8.8-18.82,13.29-40.23,15.24-59.55Z"/><path class="cls-5" d="M464.75,21.72C441.7,5.78,402.12,19,414.49,47.52Z"/><path class="cls-4" d="M416.33,119.92l16.49,35.58,2.8,6,17.19,37A89.73,89.73,0,0,0,471,182.83q3-3.27,5.89-6.89a179.31,179.31,0,0,0,17.77-27.2q2.07-3.84,3.93-7.76c4.91-10.35,9.39-20.46,6.12-28.88-.12-.29-.25-.59-.38-.88a15.59,15.59,0,0,0-1.28-2.27c-3.81-5.65-11.95-10.36-27-13.62-.52-.1-1.06-.22-1.59-.3L449,90.74,444.21,90l-14.53,3.12a12.47,12.47,0,0,0-2.09.59,20.43,20.43,0,0,0-3.27,1.42,19,19,0,0,0-7.55,7.76,15.25,15.25,0,0,0-.88,1.93A19.1,19.1,0,0,0,416.33,119.92Z"/><path class="cls-7" d="M416.77,102.84l.15.15,16.8,20.63-8.66-26.8-.74-1.74A19,19,0,0,0,416.77,102.84Z"/><path class="cls-4" d="M422.34,127.16c-13.13,29.38,5.71,49,31.32,34.41Z"/><path class="cls-4" d="M481,118.21a12.75,12.75,0,0,0,.22,2.37,14.13,14.13,0,0,0,.72,2.47l12.75,25.69,20.84,42,15.05,2.53c5.28-29.07-6.58-59.43-24.6-81-.77-.9-1.52-1.8-2.3-2.67-.19-.22-.4-.42-.6-.63A13,13,0,0,0,481,118.21Z"/><path class="cls-6" d="M464.61,120.71c5.8,2.31,11.4,1.62,16.61-.13,9.76-3.31,18.09-10.42,23.52-8.48a4.81,4.81,0,0,1,1.25.65s0-.18,0-.5c-.77-.9-1.52-1.8-2.3-2.67-.19-.22-.4-.42-.6-.63-2.43-3.61-6.63-6.81-13.23-9.54A168.09,168.09,0,0,1,464.61,120.71Z"/><path class="cls-8" d="M420.43,95.09a27.77,27.77,0,0,0,1.7,8.77c3.74,10.67,12.82,22.14,19.89,31a241.28,241.28,0,0,0,22.6-14.15,24.39,24.39,0,0,1-5.54-3.14C451,111.54,449,102,449,90.74L474.48,95c.53.09,1.07.21,1.59.31a83.32,83.32,0,0,1,13.77,4.08c.58-.6,1.13-1.21,1.69-1.81-.6-.1-11.7-2.59-12.28-2.65l-31.78-5-4.51.54Z"/><path class="cls-9" d="M420.42,95.09c-.07,3,.42,5,1.71,8.77L440,97.21,443.2,90l-22.77,5.14Z"/><path class="cls-9" d="M449,90.74c.06,11.22,2,20.8,10.11,26.84a24.12,24.12,0,0,0,5.53,3.13,168.09,168.09,0,0,0,25.24-21.3,83.76,83.76,0,0,0-13.78-4.08c-.52-.1-1.06-.22-1.59-.3Z"/><polygon class="cls-10" points="469.61 55.9 465.72 97.61 444.29 119.38 434.21 67.18 469.61 55.9"/><path class="cls-11" d="M440,97.2S453.4,91.45,454.22,76l-16.76,8.84Z"/><path class="cls-10" d="M466.46,38.84l-3,11.83-1.36,5.4-3.67,14.47A23.27,23.27,0,0,1,442.89,87l-12,3.77A17,17,0,0,1,409,76c-.71-7.94-.7-17.21,2.32-27.05a36.92,36.92,0,0,1,23.6-23.93l0,0,1.92-.57.2,0c1-.25,1.94-.46,2.93-.62a35.64,35.64,0,0,1,7.18-.52l7.74.23A12.32,12.32,0,0,1,466.46,38.84Z"/><path class="cls-11" d="M427.17,27.11C424.65,44,448.38,60.84,448.38,60.84l.05-17Z"/><path class="cls-11" d="M421.32,91a16.8,16.8,0,0,0,9.62-.18L442.88,87a23.26,23.26,0,0,0,15.56-16.48l3.66-14.47,1.37-5.4,3-11.83a12.33,12.33,0,0,0-11.6-15.34l-7.73-.22c-1.77-.06-5.27.24-5.27.24l-.82,22,1,27.21c0,6-1.7,9.07-5.44,12a24.6,24.6,0,0,1-6.15,3.73C427.13,90,423.07,91.58,421.32,91Z"/><path class="cls-10" d="M454.58,55.51c33-24.18,36.66,19.35,1.2,16.59Z"/><path class="cls-5" d="M458,59.17c-3.46-6.11-3.82-14.93-13-25.12,0,0-6.69-6.34-15.52-6.73,0,0,19-14.14,35.25-5.6S458,59.17,458,59.17Z"/><path class="cls-5" d="M445,34.05c8.13,29.11-8.63,65.06,11.12,79.78s38.1-11,46.91-4.82c0,0-.18-15.65-14.69-18.8-2-20,15.17-74-23.61-68.49Z"/><path class="cls-5" d="M425.64,22.05c.27,16,23.21,32.71,23.21,32.71l4.11-27Z"/><path class="cls-5" d="M413,57.64c-.27,2.84.55,5.24,1.85,5.36s2.56-2.07,2.83-4.91-.55-5.23-1.84-5.36S413.23,54.81,413,57.64Z"/><path class="cls-10" d="M421.15,53.43c-2.59,6.24-6.88,7.52-9.85,7.56a3.7,3.7,0,0,0-3.64,3.42h0A6.38,6.38,0,0,0,411,70.52l7.84,4.26A7.86,7.86,0,0,0,429,69.11l3.54-15.3Z"/><path class="cls-11" d="M415.91,73.78l.48-.88-5.18-2.82a5.87,5.87,0,0,1-3-5.63,3.2,3.2,0,0,1,3.14-3c3.23,0,7.64-1.45,10.31-7.87l-.92-.39c-2.46,5.93-6.47,7.22-9.4,7.26a4.2,4.2,0,0,0-4.13,3.88A6.89,6.89,0,0,0,410.73,71Z"/><path class="cls-5" d="M430.16,60.21c-.27,2.83.56,5.23,1.85,5.35s2.56-2.07,2.84-4.9-.56-5.24-1.85-5.36S430.44,57.37,430.16,60.21Z"/><path class="cls-5" d="M437.46,48.94c6.45,2.69,8.22-.62,3.59-3.42C436.08,42.51,429.44,45.6,437.46,48.94Z"/><path class="cls-5" d="M418.89,45.92c5-.81,3.63-4-.58-4C413.79,41.84,412.63,46.94,418.89,45.92Z"/><path class="cls-8" d="M418.78,75.88l11.6-.9s-1.3,6.7-4.67,7.43C422.05,83.2,418.78,75.88,418.78,75.88Z"/><path class="cls-11" d="M439.24,337.85H531c.23-6.28.6-18,.48-23.74l-91.09-2.69Z"/><path class="cls-4" d="M430.4,251l5.45,78.72H537s4.52-51.83-9.23-95.36c0-.11-.07-.23-.1-.35-.89-2.77-1.84-5.51-2.89-8.18,0-.09-.06-.18-.1-.27a106.09,106.09,0,0,0-10.78-21L486.09,220Z"/><path class="cls-6" d="M439.34,168.92c5,2.53,20.34,9.26,20.34,9.26s-1,23.73,15.43,35.08c3.62,2.5,7.33,4.61,11,6.74,7.74,4.52,15.27,9.14,21.35,17.84,4,5.76,7.41,13.29,9.83,23.79,5.49,23.82,3.24,53,1.44,68.11H537s4.52-51.83-9.23-95.36c0-.11-.07-.23-.1-.35a86.71,86.71,0,0,0-2.89-8.18c0-.09-.06-.18-.1-.27a106.09,106.09,0,0,0-10.78-21c-9.24-14.74-23.89-31.76-46.13-43.17a147.44,147.44,0,0,1-25.91,2.55c-7.34,0-13.84-2.12-19.58-4.58C422.23,159.34,427,166.88,439.34,168.92Z"/><path class="cls-11" d="M504.82,216.07c35.33-1,27-32.43,27-32.43L503.5,198.78Z"/><path class="cls-8" d="M489.46,142.6c-7-9.44-37.37-1.21-37.37-1.21l-3.27,3.93Z"/><path class="cls-8" d="M491,142.87c-2.34-9.46,23.64-22.64,23.64-22.64l7.44,2Z"/><polygon class="cls-12" points="484.08 142.44 448.49 144.22 446.91 145.74 485.47 146.74 484.08 142.44"/><polygon class="cls-12" points="484.08 142.44 493.8 140.45 494.84 142.61 484.22 144.62 484.08 142.44"/><polygon class="cls-12" points="522.2 119.72 493.8 140.45 494.37 142.64 524.55 120.07 522.2 119.72"/><polygon class="cls-13" points="484.22 144.62 446.91 145.74 462.06 204.68 500.11 202.14 484.22 144.62"/><polygon class="cls-12" points="509.53 201.58 500.1 202.14 490.37 166.88 489.19 162.63 488.19 158.96 486.95 154.48 484.23 144.62 494.37 142.64 496.79 152.06 498.12 157.19 498.83 159.96 500.21 165.33 509.53 201.58"/><polygon class="cls-8" points="498.12 157.19 488.19 158.96 486.95 154.48 496.79 152.06 498.12 157.19"/><polygon class="cls-8" points="500.21 165.33 490.37 166.88 489.19 162.63 498.83 159.96 500.21 165.33"/><polygon class="cls-13" points="524.27 120.16 494.37 142.64 509.53 201.58 540.15 177.68 524.27 120.16"/><path class="cls-12" d="M515.1,177.81c-5.57-3.16-5.28,4.11-13.31-.88-7-4.31-13.5-5.91-16.65-4.77C468.29,178.25,472.05,204,472.05,204l41.39-2.43Z"/><polygon class="cls-8" points="463.63 196.88 494.07 194.21 494.7 196.94 464.26 199.61 463.63 196.88"/><polygon class="cls-8" points="502.35 151.69 523.5 137.79 525.48 145.53 504.32 159.34 502.35 151.69"/><path class="cls-11" d="M515,204.13l1.21-13.86-1.06-9.77a2.6,2.6,0,0,0-3.36-2.2h0a2.61,2.61,0,0,0-1.82,2.42l-.15,7.25-1.68,6.11Z"/><path class="cls-11" d="M515,204.13l-4.23-10.78-30.86,10c5.83,6.47,24.95,12.69,24.95,12.69Z"/><path class="cls-11" d="M510.73,193.35l-7,5.89-.28-.46-4.71-7.73v0l-3.3-7.65-8.68-7.5a2,2,0,0,1-.58-2h0a1.94,1.94,0,0,1,2.88-1l10.9,7,8.4,10.66Z"/><path class="cls-11" d="M504.79,197l-1.29,1.76L498.86,204l-1.93-2.36-4.11-5.08-.23-.28-.8-1-5.41-8-6-8.87a2,2,0,0,1,0-2.25l.07-.09a2,2,0,0,1,3.06-.27l8,8.11,6.31,6.4.75.72,3.52,3.4Z"/><path class="cls-11" d="M489.41,208.09l-9.54-4.71-4.22-6.93a2.23,2.23,0,0,1,2.56-3.29,2.26,2.26,0,0,1,1.13.79l3.7,4.93,4.49,2.54-5.23-5.65-4.89-9.2a2,2,0,0,1,.24-2.22,2,2,0,0,1,3,0l5.65,6.64,12.7,8.15Z"/><path class="cls-10" d="M480.49,184.34l5.65,6.64-4.05,4.79-4.88-9.2a2,2,0,0,1,.24-2.22h0A2,2,0,0,1,480.49,184.34Z"/><path class="cls-10" d="M480.47,176.07a2,2,0,0,1,3.06-.27l8,8.11-5.14,3.37-6-8.87a2,2,0,0,1,0-2.25Z"/><path class="cls-10" d="M499.8,179.75l-4.52,3.63-8.68-7.5a1.91,1.91,0,0,1-.58-2h0a1.94,1.94,0,0,1,2.88-1Z"/><path class="cls-10" d="M482.83,198.88l-3.16,4.5-4.23-6.93a2.24,2.24,0,0,1,.51-2.9,2.23,2.23,0,0,1,3.18.4Z"/><path class="cls-10" d="M311.26,146.67l1.49.33A77.6,77.6,0,0,0,327,149.2c7.46.35,16.6-.63,27.64-5.15l-3.77-11.54-22.1-15.07Z"/><path class="cls-5" d="M308,123.57l32.13,31.73a2.9,2.9,0,0,0,4.09,0h0a2.9,2.9,0,0,0-.07-4.16L312,121Z"/><path class="cls-11" d="M312.75,147A77.6,77.6,0,0,0,327,149.2a4.21,4.21,0,0,0,.68-4.09,4.3,4.3,0,0,0-1-1.56,2.55,2.55,0,0,0-.24-.23,1.43,1.43,0,0,0-.24-.16,4.18,4.18,0,0,0-4.19-.45l-8.1,3.57A4.32,4.32,0,0,0,312.75,147Z"/><path class="cls-11" d="M308.39,144.61a4.12,4.12,0,0,0,3.73,1.94L321,146a4.23,4.23,0,0,0,3.49-6.18c0-.11-.11-.2-.16-.29a1.77,1.77,0,0,0-.16-.22,4.19,4.19,0,0,0-3.84-1.75l-8.82.84a4.09,4.09,0,0,0-3,1.81c-.09.14-.18.29-.26.44a3.74,3.74,0,0,0-.45,1.88A4,4,0,0,0,308.39,144.61Z"/><path class="cls-10" d="M317.11,127.58a4.09,4.09,0,0,1,1.08,1.18,3.59,3.59,0,0,1,.21.38,4.19,4.19,0,0,1-.28,4.17,4.12,4.12,0,0,1-1.19,1.2l-3.06,2-4.32,2.87a4.11,4.11,0,0,1-2,.67,4.06,4.06,0,0,1-2.71-.79,4.19,4.19,0,0,1-1.07-1.18,4.08,4.08,0,0,1,.86-5.23h0a2.48,2.48,0,0,1,.26-.19l7.23-5.15a2.11,2.11,0,0,1,.22-.14A4.22,4.22,0,0,1,317.11,127.58Z"/><path class="cls-10" d="M311.32,153.43a4.12,4.12,0,0,0,4.15.66l8.23-3.31a4.21,4.21,0,0,0,1.36-7c-.08-.09-.16-.15-.23-.22a1.88,1.88,0,0,0-.23-.16,4.14,4.14,0,0,0-4.19-.45l-8.11,3.56a4.06,4.06,0,0,0-2.27,2.66c0,.16-.08.34-.12.51a3.73,3.73,0,0,0,.17,1.92A4.13,4.13,0,0,0,311.32,153.43Z"/><path class="cls-11" d="M310,149.21a4,4,0,0,0,2.36.29l8.73-1.51a4.31,4.31,0,0,0,3.66-5.29c-1.18-.86-2.95-.36-4.37.29l-8.11,3.56A4.06,4.06,0,0,0,310,149.21Z"/><path class="cls-10" d="M306.72,145.57a4.1,4.1,0,0,0,3.73,1.93l8.86-.55a4.24,4.24,0,0,0,4-4.36,4.43,4.43,0,0,0-.49-1.81,1.57,1.57,0,0,0-.16-.29,1.12,1.12,0,0,0-.16-.22,4.17,4.17,0,0,0-3.84-1.75l-8.82.83a4.12,4.12,0,0,0-3,1.81c-.1.14-.18.3-.27.45a3.7,3.7,0,0,0-.44,1.88A4.15,4.15,0,0,0,306.72,145.57Z"/><path class="cls-11" d="M306.82,141.16a4,4,0,0,0,2.15,1l8.76,1.31a4.31,4.31,0,0,0,5.14-3.87c-.84-1.19-2.68-1.26-4.24-1.1l-8.82.83A4.12,4.12,0,0,0,306.82,141.16Z"/><path class="cls-11" d="M310,137.17a4.08,4.08,0,0,0,2.7,2.1l6,1.26a4.21,4.21,0,0,0,4.81-5.81,2.72,2.72,0,0,0-.11-.25,4.25,4.25,0,0,0-2.93-2.21l-6-1a4.13,4.13,0,0,0-2.9.53,4,4,0,0,0-1.82,2.4A4.07,4.07,0,0,0,310,137.17Z"/><path class="cls-10" d="M321.74,135.34c0,.07.1.16.14.24l.14.3h0a4,4,0,0,1,.3,2.44,4.21,4.21,0,0,1-4.78,3.42l-8.77-1.29a4.25,4.25,0,0,1-1.19-.38,4.11,4.11,0,0,1-2.22-4.46,4.41,4.41,0,0,1,.7-1.61,4.36,4.36,0,0,1,.95-.92,4,4,0,0,1,2.84-.75l8.28,1,.53.06A4.21,4.21,0,0,1,321.74,135.34Z"/><path class="cls-11" d="M318.05,133.25l.53.07a4.25,4.25,0,0,1,3.09,2c0,.08.1.16.14.25s.09.2.14.29h0a4.22,4.22,0,0,1-4.8,1.72l-3.34-1.06-7.24-2.29A3.36,3.36,0,0,1,306,134a4.22,4.22,0,0,1-1.41-1.13h0l.26-.2,7.23-5.14a1.18,1.18,0,0,1,.22-.14l6,1.75A4.18,4.18,0,0,1,318.05,133.25Z"/><path class="cls-10" d="M318,121.45a4.23,4.23,0,0,1-.74,7.25l-2.6,1.2-5.46,2.5a4,4,0,0,1-2.51.29,3.79,3.79,0,0,1-1.63-.71,4.1,4.1,0,0,1,.59-6.94l2.57-1.28,2.72-1.37,2.64-1.32A4.21,4.21,0,0,1,318,121.45Z"/><path class="cls-11" d="M310.11,130.33a4.06,4.06,0,0,0,2.34,2.48l5.71,2.16a4.2,4.2,0,0,0,5.64-5,1.34,1.34,0,0,0-.07-.27,4.21,4.21,0,0,0-2.56-2.62l-5.8-1.92a4.1,4.1,0,0,0-2.95.08,4.07,4.07,0,0,0-2.31,5.09Z"/><path class="cls-10" d="M305.76,131a4.12,4.12,0,0,0,2.53,2.29l8.48,2.63A4.23,4.23,0,0,0,322,133.3a4.3,4.3,0,0,0,0-2.79,2,2,0,0,0-.09-.26,4.21,4.21,0,0,0-2.76-2.42l-8.55-2.37a4.11,4.11,0,0,0-4.93,2.56A4.13,4.13,0,0,0,305.76,131Z"/><path class="cls-11" d="M345.74,134.28,327,121.58l-13.73,1.72,4.28,7.11,5.54,1S330.26,148.45,345.74,134.28Z"/><path class="cls-11" d="M313.25,123.3l-3.88,7a3.2,3.2,0,0,0,1.21,4.31h0a3.19,3.19,0,0,0,4-.72l2.91-3.5Z"/><path class="cls-11" d="M311,122.39l4.85,5.48-1.13,2-1.5,2.65a3.94,3.94,0,0,1-.26.4,3.75,3.75,0,0,1-4.28,1.31,3.64,3.64,0,0,1-1.93-1.57,3.74,3.74,0,0,1-.39-3.17l1.92-5.76Z"/><path class="cls-5" d="M314.71,123.73,265.12,77.54a1.47,1.47,0,0,0-1.72-.25h0a1.46,1.46,0,0,0-.35,2.33l49,48.6Z"/><path class="cls-10" d="M350.85,132.51l-22.1-15.07-16.2,2,5,8.41,6.54,1.15S332.52,149.18,350.85,132.51Z"/><path class="cls-10" d="M312.55,119.42l-4.61,8.27a3.77,3.77,0,0,0,1.4,5.1h0a3.77,3.77,0,0,0,4.77-.84l3.46-4.12Z"/><path class="cls-10" d="M348.06,141.89c13.74,26.28,26.64,44.12,36.66,55.8A17.58,17.58,0,0,0,397,203.87a18.22,18.22,0,0,0,6.44-.75,17.54,17.54,0,0,0,11.26-10.34,17.78,17.78,0,0,0-6.51-21.38l-17-11.51-40.38-27.38Z"/><path class="cls-11" d="M384.72,197.69A17.58,17.58,0,0,0,397,203.87a18.22,18.22,0,0,0,6.44-.75,17.54,17.54,0,0,0,11.26-10.34,17.76,17.76,0,0,0-.84-15.11c-3.73,13.49-10.79,24.15-19.79,24C391.15,201.56,388,200.34,384.72,197.69Z"/><polygon class="cls-11" points="526.76 335.09 520.19 314.97 510.73 335.09 526.76 335.09"/><path class="cls-14" d="M510.68,36.31V13.06A13.06,13.06,0,0,1,523.74,0h44.92a13.06,13.06,0,0,1,13.06,13.06V36.12a13.06,13.06,0,0,1-13.06,13.06H498Z"/><line class="cls-15" x1="568.5" y1="18.57" x2="523.9" y2="18.57"/><line class="cls-15" x1="568.5" y1="30.61" x2="539.84" y2="30.61"/><line class="cls-15" x1="530.53" y1="30.61" x2="523.41" y2="30.61"/></g></g></g></svg>